<mxfile host="app.diagrams.net" modified="2021-07-07T09:28:31.617Z" agent="5.0 (X11; Linux x86_64) AppleWebKit/537.36 (KHTML, like Gecko) Chrome/91.0.4472.77 Safari/537.36" etag="-wFPrwb3sRpFZ0g3fMOz" version="14.8.4" type="github">
  <diagram id="C5RBs43oDa-KdzZeNtuy" name="Page-1">
    <mxGraphModel dx="1186" dy="786" grid="1" gridSize="10" guides="1" tooltips="1" connect="1" arrows="1" fold="1" page="1" pageScale="1" pageWidth="827" pageHeight="1169" math="0" shadow="0">
      <root>
        <mxCell id="WIyWlLk6GJQsqaUBKTNV-0" />
        <mxCell id="WIyWlLk6GJQsqaUBKTNV-1" parent="WIyWlLk6GJQsqaUBKTNV-0" />
        <mxCell id="wcFUe9UU_2rUICY3BmZ0-0" value="入口" style="ellipse;whiteSpace=wrap;html=1;aspect=fixed;" vertex="1" parent="WIyWlLk6GJQsqaUBKTNV-1">
          <mxGeometry x="180" y="520" width="80" height="80" as="geometry" />
        </mxCell>
        <mxCell id="wcFUe9UU_2rUICY3BmZ0-1" value="" style="endArrow=classic;html=1;exitX=0.5;exitY=1;exitDx=0;exitDy=0;" edge="1" parent="WIyWlLk6GJQsqaUBKTNV-1" source="wcFUe9UU_2rUICY3BmZ0-0">
          <mxGeometry width="50" height="50" relative="1" as="geometry">
            <mxPoint x="390" y="900" as="sourcePoint" />
            <mxPoint x="220" y="650" as="targetPoint" />
          </mxGeometry>
        </mxCell>
        <mxCell id="wcFUe9UU_2rUICY3BmZ0-2" value="&lt;font style=&quot;font-size: 14px&quot;&gt;main_for_ServiceMainBody.py&lt;/font&gt;" style="rounded=1;whiteSpace=wrap;html=1;" vertex="1" parent="WIyWlLk6GJQsqaUBKTNV-1">
          <mxGeometry x="100" y="650" width="240" height="60" as="geometry" />
        </mxCell>
        <mxCell id="wcFUe9UU_2rUICY3BmZ0-3" value="&lt;font style=&quot;font-size: 14px&quot;&gt;uvicorn&lt;/font&gt;" style="text;html=1;align=center;verticalAlign=middle;resizable=0;points=[];autosize=1;strokeColor=none;" vertex="1" parent="WIyWlLk6GJQsqaUBKTNV-1">
          <mxGeometry x="240" y="610" width="60" height="20" as="geometry" />
        </mxCell>
        <mxCell id="wcFUe9UU_2rUICY3BmZ0-6" value="" style="endArrow=classic;html=1;exitX=0.5;exitY=1;exitDx=0;exitDy=0;" edge="1" parent="WIyWlLk6GJQsqaUBKTNV-1" source="wcFUe9UU_2rUICY3BmZ0-2">
          <mxGeometry width="50" height="50" relative="1" as="geometry">
            <mxPoint x="219" y="730" as="sourcePoint" />
            <mxPoint x="219" y="760" as="targetPoint" />
          </mxGeometry>
        </mxCell>
        <mxCell id="wcFUe9UU_2rUICY3BmZ0-11" value="" style="edgeStyle=orthogonalEdgeStyle;rounded=0;orthogonalLoop=1;jettySize=auto;html=1;" edge="1" parent="WIyWlLk6GJQsqaUBKTNV-1" source="wcFUe9UU_2rUICY3BmZ0-7" target="wcFUe9UU_2rUICY3BmZ0-13">
          <mxGeometry relative="1" as="geometry">
            <mxPoint x="220" y="870" as="targetPoint" />
          </mxGeometry>
        </mxCell>
        <mxCell id="wcFUe9UU_2rUICY3BmZ0-7" value="&lt;font style=&quot;font-size: 14px&quot;&gt;ServiceMainBody/factory.py&lt;/font&gt;" style="rounded=1;whiteSpace=wrap;html=1;" vertex="1" parent="WIyWlLk6GJQsqaUBKTNV-1">
          <mxGeometry x="100" y="760" width="240" height="60" as="geometry" />
        </mxCell>
        <mxCell id="wcFUe9UU_2rUICY3BmZ0-8" value="&lt;font style=&quot;font-size: 14px&quot;&gt;创建工厂&lt;/font&gt;" style="text;html=1;align=center;verticalAlign=middle;resizable=0;points=[];autosize=1;strokeColor=none;" vertex="1" parent="WIyWlLk6GJQsqaUBKTNV-1">
          <mxGeometry x="235" y="730" width="70" height="20" as="geometry" />
        </mxCell>
        <mxCell id="wcFUe9UU_2rUICY3BmZ0-13" value="&lt;b&gt;&lt;font style=&quot;font-size: 14px&quot;&gt;组件&lt;/font&gt;&lt;/b&gt;" style="rounded=0;whiteSpace=wrap;html=1;" vertex="1" parent="WIyWlLk6GJQsqaUBKTNV-1">
          <mxGeometry x="110" y="870" width="220" height="30" as="geometry" />
        </mxCell>
        <mxCell id="wcFUe9UU_2rUICY3BmZ0-16" value="" style="whiteSpace=wrap;html=1;aspect=fixed;" vertex="1" parent="WIyWlLk6GJQsqaUBKTNV-1">
          <mxGeometry x="110" y="900" width="220" height="220" as="geometry" />
        </mxCell>
        <mxCell id="wcFUe9UU_2rUICY3BmZ0-39" style="edgeStyle=orthogonalEdgeStyle;rounded=0;orthogonalLoop=1;jettySize=auto;html=1;" edge="1" parent="WIyWlLk6GJQsqaUBKTNV-1" source="wcFUe9UU_2rUICY3BmZ0-22" target="wcFUe9UU_2rUICY3BmZ0-40">
          <mxGeometry relative="1" as="geometry">
            <mxPoint x="410" y="940" as="targetPoint" />
          </mxGeometry>
        </mxCell>
        <mxCell id="wcFUe9UU_2rUICY3BmZ0-22" value="&lt;font style=&quot;font-size: 14px&quot;&gt;router&lt;/font&gt;&lt;font size=&quot;1&quot;&gt;(路由)&lt;/font&gt;" style="rounded=0;whiteSpace=wrap;html=1;" vertex="1" parent="WIyWlLk6GJQsqaUBKTNV-1">
          <mxGeometry x="135" y="920" width="170" height="40" as="geometry" />
        </mxCell>
        <mxCell id="wcFUe9UU_2rUICY3BmZ0-35" style="edgeStyle=orthogonalEdgeStyle;rounded=0;orthogonalLoop=1;jettySize=auto;html=1;" edge="1" parent="WIyWlLk6GJQsqaUBKTNV-1" source="wcFUe9UU_2rUICY3BmZ0-23" target="wcFUe9UU_2rUICY3BmZ0-36">
          <mxGeometry relative="1" as="geometry">
            <mxPoint x="410" y="1000" as="targetPoint" />
          </mxGeometry>
        </mxCell>
        <mxCell id="wcFUe9UU_2rUICY3BmZ0-23" value="&lt;font style=&quot;font-size: 14px&quot;&gt;middleware(中间件)&lt;/font&gt;" style="rounded=0;whiteSpace=wrap;html=1;" vertex="1" parent="WIyWlLk6GJQsqaUBKTNV-1">
          <mxGeometry x="135" y="980" width="170" height="40" as="geometry" />
        </mxCell>
        <mxCell id="wcFUe9UU_2rUICY3BmZ0-37" style="edgeStyle=orthogonalEdgeStyle;rounded=0;orthogonalLoop=1;jettySize=auto;html=1;" edge="1" parent="WIyWlLk6GJQsqaUBKTNV-1" source="wcFUe9UU_2rUICY3BmZ0-24" target="wcFUe9UU_2rUICY3BmZ0-38">
          <mxGeometry relative="1" as="geometry">
            <mxPoint x="410" y="1060" as="targetPoint" />
          </mxGeometry>
        </mxCell>
        <mxCell id="wcFUe9UU_2rUICY3BmZ0-24" value="&lt;font style=&quot;font-size: 14px&quot;&gt;plugins(插件)&lt;/font&gt;" style="rounded=0;whiteSpace=wrap;html=1;" vertex="1" parent="WIyWlLk6GJQsqaUBKTNV-1">
          <mxGeometry x="135" y="1040" width="170" height="40" as="geometry" />
        </mxCell>
        <mxCell id="wcFUe9UU_2rUICY3BmZ0-36" value="&lt;font style=&quot;font-size: 14px&quot;&gt;ServiceMainBody/utils/middelware.py&lt;/font&gt;" style="rounded=0;whiteSpace=wrap;html=1;" vertex="1" parent="WIyWlLk6GJQsqaUBKTNV-1">
          <mxGeometry x="414" y="980" width="266" height="40" as="geometry" />
        </mxCell>
        <mxCell id="wcFUe9UU_2rUICY3BmZ0-38" value="&lt;font style=&quot;font-size: 14px&quot;&gt;ServiceMainBody/utils/plugins.py&lt;/font&gt;" style="rounded=0;whiteSpace=wrap;html=1;" vertex="1" parent="WIyWlLk6GJQsqaUBKTNV-1">
          <mxGeometry x="414" y="1042.5" width="266" height="35" as="geometry" />
        </mxCell>
        <mxCell id="wcFUe9UU_2rUICY3BmZ0-40" value="&lt;font style=&quot;font-size: 14px&quot;&gt;&lt;span&gt;API&lt;/span&gt;&lt;br&gt;&lt;span&gt;(ServiceMainBody/api)&amp;nbsp;&lt;br&gt;以@router装饰器装饰的入口函数&lt;br&gt;&lt;/span&gt;(ServiceMainBody/api/endpoints)&lt;span&gt;&lt;br&gt;&lt;br&gt;&lt;/span&gt;&lt;/font&gt;" style="rounded=0;whiteSpace=wrap;html=1;" vertex="1" parent="WIyWlLk6GJQsqaUBKTNV-1">
          <mxGeometry x="414" y="830" width="266" height="80" as="geometry" />
        </mxCell>
        <mxCell id="wcFUe9UU_2rUICY3BmZ0-41" value="&lt;font style=&quot;font-size: 14px&quot;&gt;注册组件&lt;/font&gt;" style="text;html=1;align=center;verticalAlign=middle;resizable=0;points=[];autosize=1;strokeColor=none;" vertex="1" parent="WIyWlLk6GJQsqaUBKTNV-1">
          <mxGeometry x="235" y="830" width="70" height="20" as="geometry" />
        </mxCell>
      </root>
    </mxGraphModel>
  </diagram>
</mxfile>
